HIERARCHY
ROOT Hips
{
	OFFSET 0.000000 97.167313 0.000000
	CHANNELS 6 Xposition Yposition Zposition Xrotation Yrotation Zrotation
	JOINT Spine
	{
		OFFSET 0.000000 13.784798 0.064400
		CHANNELS 3 Xrotation Yrotation Zrotation
		JOINT Spine1
		{
			OFFSET 0.000000 12.037903 0.404700
			CHANNELS 3 Xrotation Yrotation Zrotation
			JOINT Spine2
			{
				OFFSET 0.000000 17.795601 0.420200
				CHANNELS 3 Xrotation Yrotation Zrotation
				JOINT Neck
				{
					OFFSET 0.000000 39.131302 11.954600
					CHANNELS 3 Xrotation Yrotation Zrotation
					JOINT Head
					{
						OFFSET 0.000000 14.456192 15.627699
						CHANNELS 3 Xrotation Yrotation Zrotation
						JOINT HeadTop_End
						{
							OFFSET 0.000000 15.703506 7.603401
							CHANNELS 3 Xrotation Yrotation Zrotation
							End Site
							{
								OFFSET 0.000000 17.447403 0.000000
							}
						}
					}
				}
				JOINT LeftShoulder
				{
					OFFSET 17.399500 24.608795 1.168800
					CHANNELS 3 Xrotation Yrotation Zrotation
					JOINT LeftArm
					{
						OFFSET 18.980635 5.765305 1.818600
						CHANNELS 3 Xrotation Yrotation Zrotation
						JOINT LeftForeArm
						{
							OFFSET 49.290169 0.000000 0.000000
							CHANNELS 3 Xrotation Yrotation Zrotation
							JOINT LeftHand
							{
								OFFSET 31.562012 0.000000 0.000000
								CHANNELS 3 Xrotation Yrotation Zrotation
								JOINT LeftHandThumb1
								{
									OFFSET 6.133995 -4.388519 7.076070
									CHANNELS 3 Xrotation Yrotation Zrotation
									JOINT LeftHandThumb2
									{
										OFFSET 6.037666 -3.485840 3.485847
										CHANNELS 3 Xrotation Yrotation Zrotation
										JOINT LeftHandThumb3
										{
											OFFSET 6.496506 -3.750763 3.750761
											CHANNELS 3 Xrotation Yrotation Zrotation
											JOINT LeftHandThumb4
											{
												OFFSET 5.616882 -3.242905 3.242910
												CHANNELS 3 Xrotation Yrotation Zrotation
												End Site
												{
													OFFSET -1.254608 7.132141 0.375429
												}
											}
										}
									}
								}
								JOINT LeftHandPinky1
								{
									OFFSET 18.920792 -0.453171 -11.426712
									CHANNELS 3 Xrotation Yrotation Zrotation
									JOINT LeftHandPinky2
									{
										OFFSET 4.919586 0.000000 0.000000
										CHANNELS 3 Xrotation Yrotation Zrotation
										JOINT LeftHandPinky3
										{
											OFFSET 5.233047 0.000000 0.000000
											CHANNELS 3 Xrotation Yrotation Zrotation
											JOINT LeftHandPinky4
											{
												OFFSET 5.571716 0.000000 0.000000
												CHANNELS 3 Xrotation Yrotation Zrotation
												End Site
												{
													OFFSET -3.459808 4.342407 -0.466164
												}
											}
										}
									}
								}
								JOINT LeftHandRing1
								{
									OFFSET 22.726120 -0.094986 -6.500475
									CHANNELS 3 Xrotation Yrotation Zrotation
									JOINT LeftHandRing2
									{
										OFFSET 6.408615 0.000000 0.000000
										CHANNELS 3 Xrotation Yrotation Zrotation
										JOINT LeftHandRing3
										{
											OFFSET 6.150223 0.000000 0.000000
											CHANNELS 3 Xrotation Yrotation Zrotation
											JOINT LeftHandRing4
											{
												OFFSET 6.145386 0.000000 0.000000
												CHANNELS 3 Xrotation Yrotation Zrotation
												End Site
												{
													OFFSET -3.671402 4.923981 -0.202372
												}
											}
										}
									}
								}
								JOINT LeftHandMiddle1
								{
									OFFSET 23.373947 0.000000 0.000001
									CHANNELS 3 Xrotation Yrotation Zrotation
									JOINT LeftHandMiddle2
									{
										OFFSET 6.996567 0.000000 0.000000
										CHANNELS 3 Xrotation Yrotation Zrotation
										JOINT LeftHandMiddle3
										{
											OFFSET 7.015945 0.000000 0.000000
											CHANNELS 3 Xrotation Yrotation Zrotation
											JOINT LeftHandMiddle4
											{
												OFFSET 7.721573 0.000000 0.000000
												CHANNELS 3 Xrotation Yrotation Zrotation
												End Site
												{
													OFFSET -4.651108 6.158463 0.251582
												}
											}
										}
									}
								}
								JOINT LeftHandIndex1
								{
									OFFSET 21.310577 -0.490082 6.209344
									CHANNELS 3 Xrotation Yrotation Zrotation
									JOINT LeftHandIndex2
									{
										OFFSET 7.536453 0.000000 0.000000
										CHANNELS 3 Xrotation Yrotation Zrotation
										JOINT LeftHandIndex3
										{
											OFFSET 7.512344 0.000000 0.000000
											CHANNELS 3 Xrotation Yrotation Zrotation
											JOINT LeftHandIndex4
											{
												OFFSET 10.212402 0.000000 0.000001
												CHANNELS 3 Xrotation Yrotation Zrotation
												End Site
												{
													OFFSET -5.180801 8.690506 1.388433
												}
											}
										}
									}
								}
							}
						}
					}
				}
				JOINT RightShoulder
				{
					OFFSET -17.399500 24.608795 1.168800
					CHANNELS 3 Xrotation Yrotation Zrotation
					JOINT RightArm
					{
						OFFSET -18.980635 5.765305 1.818600
						CHANNELS 3 Xrotation Yrotation Zrotation
						JOINT RightForeArm
						{
							OFFSET -49.290169 0.000000 0.000000
							CHANNELS 3 Xrotation Yrotation Zrotation
							JOINT RightHand
							{
								OFFSET -31.562012 0.000000 0.000000
								CHANNELS 3 Xrotation Yrotation Zrotation
								JOINT RightHandThumb1
								{
									OFFSET -6.133995 -4.388519 7.076070
									CHANNELS 3 Xrotation Yrotation Zrotation
									JOINT RightHandThumb2
									{
										OFFSET -6.037666 -3.485840 3.485847
										CHANNELS 3 Xrotation Yrotation Zrotation
										JOINT RightHandThumb3
										{
											OFFSET -6.496506 -3.750763 3.750761
											CHANNELS 3 Xrotation Yrotation Zrotation
											JOINT RightHandThumb4
											{
												OFFSET -5.616882 -3.242905 3.242910
												CHANNELS 3 Xrotation Yrotation Zrotation
												End Site
												{
													OFFSET 1.254608 7.132141 0.375429
												}
											}
										}
									}
								}
								JOINT RightHandIndex1
								{
									OFFSET -21.310577 -0.490082 6.209344
									CHANNELS 3 Xrotation Yrotation Zrotation
									JOINT RightHandIndex2
									{
										OFFSET -7.536453 0.000000 0.000000
										CHANNELS 3 Xrotation Yrotation Zrotation
										JOINT RightHandIndex3
										{
											OFFSET -7.512344 0.000000 0.000000
											CHANNELS 3 Xrotation Yrotation Zrotation
											JOINT RightHandIndex4
											{
												OFFSET -10.212402 0.000000 0.000001
												CHANNELS 3 Xrotation Yrotation Zrotation
												End Site
												{
													OFFSET 5.180801 8.690506 1.388433
												}
											}
										}
									}
								}
								JOINT RightHandMiddle1
								{
									OFFSET -23.373947 0.000000 0.000001
									CHANNELS 3 Xrotation Yrotation Zrotation
									JOINT RightHandMiddle2
									{
										OFFSET -6.996567 0.000000 0.000000
										CHANNELS 3 Xrotation Yrotation Zrotation
										JOINT RightHandMiddle3
										{
											OFFSET -7.015945 0.000000 0.000000
											CHANNELS 3 Xrotation Yrotation Zrotation
											JOINT RightHandMiddle4
											{
												OFFSET -7.721573 0.000000 0.000000
												CHANNELS 3 Xrotation Yrotation Zrotation
												End Site
												{
													OFFSET 4.651108 6.158463 0.251582
												}
											}
										}
									}
								}
								JOINT RightHandRing1
								{
									OFFSET -22.726120 -0.094986 -6.500475
									CHANNELS 3 Xrotation Yrotation Zrotation
									JOINT RightHandRing2
									{
										OFFSET -6.408615 0.000000 0.000000
										CHANNELS 3 Xrotation Yrotation Zrotation
										JOINT RightHandRing3
										{
											OFFSET -6.150223 0.000000 0.000000
											CHANNELS 3 Xrotation Yrotation Zrotation
											JOINT RightHandRing4
											{
												OFFSET -6.145386 0.000000 0.000000
												CHANNELS 3 Xrotation Yrotation Zrotation
												End Site
												{
													OFFSET 3.671402 4.923981 -0.202372
												}
											}
										}
									}
								}
								JOINT RightHandPinky1
								{
									OFFSET -18.920792 -0.453171 -11.426712
									CHANNELS 3 Xrotation Yrotation Zrotation
									JOINT RightHandPinky2
									{
										OFFSET -4.919586 0.000000 0.000000
										CHANNELS 3 Xrotation Yrotation Zrotation
										JOINT RightHandPinky3
										{
											OFFSET -5.233047 0.000000 0.000000
											CHANNELS 3 Xrotation Yrotation Zrotation
											JOINT RightHandPinky4
											{
												OFFSET -5.571716 0.000000 0.000000
												CHANNELS 3 Xrotation Yrotation Zrotation
												End Site
												{
													OFFSET 3.459808 4.342407 -0.466164
												}
											}
										}
									}
								}
							}
						}
					}
				}
			}
		}
	}
	JOINT LeftUpLeg
	{
		OFFSET 19.899099 -7.885101 -3.429500
		CHANNELS 3 Xrotation Yrotation Zrotation
		JOINT LeftLeg
		{
			OFFSET 1.745560 -36.997807 10.304700
			CHANNELS 3 Xrotation Yrotation Zrotation
			JOINT LeftFoot
			{
				OFFSET -1.745558 -29.803308 -13.615400
				CHANNELS 3 Xrotation Yrotation Zrotation
				JOINT LeftToeBase
				{
					OFFSET 1.181900 -18.539904 15.226099
					CHANNELS 3 Xrotation Yrotation Zrotation
					JOINT LeftToe_End
					{
						OFFSET -0.863701 1.402801 16.534700
						CHANNELS 3 Xrotation Yrotation Zrotation
						End Site
						{
							OFFSET 0.000000 16.616566 0.000000
						}
					}
				}
			}
		}
	}
	JOINT RightUpLeg
	{
		OFFSET -19.899099 -7.885101 -3.429500
		CHANNELS 3 Xrotation Yrotation Zrotation
		JOINT RightLeg
		{
			OFFSET -1.745560 -36.997807 10.304700
			CHANNELS 3 Xrotation Yrotation Zrotation
			JOINT RightFoot
			{
				OFFSET 1.745558 -29.803308 -13.615400
				CHANNELS 3 Xrotation Yrotation Zrotation
				JOINT RightToeBase
				{
					OFFSET -1.181900 -18.539904 15.226099
					CHANNELS 3 Xrotation Yrotation Zrotation
					JOINT RightToe_End
					{
						OFFSET 0.863701 1.402801 16.534700
						CHANNELS 3 Xrotation Yrotation Zrotation
						End Site
						{
							OFFSET 0.000000 16.616566 0.000000
						}
					}
				}
			}
		}
	}
}
MOTION
Frames: 6
Frame Time: 0.033333
-7.170697 38.594391 12.157747 13.883568 -72.848209 14.206341 15.262339 -11.844961 -10.920192 0.587376 -5.666516 -4.178307 0.671976 -5.700201 -4.072422 2.451150 14.577866 10.439895 -9.007552 52.787486 -15.655917 -0.000000 0.000002 -0.000000 11.207990 -44.655295 43.466521 -96.230180 11.056466 -37.136551 0.000062 -62.978476 -0.006793 -47.906984 -26.497147 -19.445255 17.227641 17.613460 -11.396942 17.091259 14.422341 25.539520 31.236917 29.670950 12.025564 -0.000000 -0.000001 -0.000003 -7.966935 16.523783 -95.185236 0.018653 0.020258 -66.820239 -1.750345 0.714863 -25.323775 -0.000002 0.000001 -0.000004 -4.289144 9.550814 -109.283143 2.175289 0.917395 -36.752025 0.007624 -0.943887 -36.253449 -0.000008 -0.000002 0.000003 0.577716 1.809838 -112.124945 5.828223 -3.595954 -38.340481 0.006847 0.011713 -33.361519 -0.000003 0.000002 0.000004 0.219027 -1.621433 -97.153908 2.207769 -1.384303 -60.043845 1.089984 1.621908 -33.417739 0.000001 -0.000000 -0.000001 29.916966 37.151824 -65.342473 -71.676552 12.027431 5.977683 0.000094 79.175587 -0.318033 3.555607 -14.778917 -34.752119 9.347177 2.810576 -11.364507 16.169117 -43.265984 15.843589 32.491773 -44.566773 5.661131 0.000001 0.000000 0.000002 17.076796 -0.396522 31.924328 -0.204392 -0.284220 112.811543 1.553144 -1.173031 33.344553 -0.000001 -0.000001 -0.000001 9.205490 -5.035898 102.738080 0.014993 -0.019196 61.018499 1.871350 0.346190 31.443783 -0.000001 -0.000002 -0.000006 5.569150 -8.935233 107.329074 0.547984 -0.005780 41.263734 0.739137 0.837843 51.122224 -0.000001 0.000001 -0.000005 6.511250 -17.148230 98.228004 0.007418 -0.015734 43.845733 0.011233 -0.024784 57.754570 -0.000002 0.000001 0.000007 -57.803631 -23.986714 74.269995 64.386376 -15.780727 -2.907948 21.988674 -1.370503 -45.559862 -0.649224 -1.243644 0.304347 -0.000000 -0.000000 0.000000 -80.155323 9.378055 -62.181988 117.501479 43.846164 22.480589 -2.301076 10.833957 -32.770643 -26.980147 6.530983 -3.989575 0.000001 -0.000000 0.000000 
-7.401762 38.830338 12.300152 10.614325 -74.510540 12.526723 14.486227 -10.787661 -10.497301 0.598113 -4.957104 -4.441230 0.671068 -4.993254 -4.353842 4.331385 14.192518 7.849365 -2.165714 50.133083 -18.298948 0.000002 -0.000001 0.000000 8.776172 -44.248117 38.574351 -96.735443 13.687888 -39.136752 0.000102 -64.705599 -0.583136 -46.342676 -25.344663 -22.373500 17.227641 17.613463 -11.396940 17.091259 14.422346 25.539520 31.236914 29.670946 12.025569 -0.000001 0.000003 0.000001 -7.966924 16.523783 -95.185229 0.018655 0.020255 -66.820239 -1.750342 0.714864 -25.323775 0.000003 0.000002 -0.000002 -4.289142 9.550814 -109.283143 2.175288 0.917402 -36.752029 0.007626 -0.943893 -36.253449 -0.000000 0.000001 0.000003 0.577719 1.809837 -112.124945 5.828223 -3.595952 -38.340475 0.006850 0.011715 -33.361519 -0.000006 -0.000002 0.000004 0.219030 -1.621433 -97.153908 2.207775 -1.384310 -60.043845 1.089983 1.621910 -33.417742 -0.000003 0.000003 0.000001 30.319220 45.283109 -61.079991 -65.133469 18.323844 1.798010 -0.004921 76.866259 3.017210 3.940386 -15.405811 -36.023166 9.347168 2.810576 -11.364504 16.169115 -43.265984 15.843587 32.491773 -44.566773 5.661129 0.000001 0.000000 -0.000001 17.076800 -0.396526 31.924328 -0.204394 -0.284218 112.811550 1.553138 -1.173029 33.344553 -0.000004 -0.000003 -0.000001 9.205490 -5.035901 102.738087 0.014992 -0.019195 61.018499 1.871351 0.346186 31.443780 -0.000002 0.000001 -0.000004 5.569151 -8.935232 107.329080 0.547986 -0.005783 41.263738 0.739135 0.837850 51.122221 -0.000001 0.000001 -0.000001 6.511239 -17.148235 98.228010 0.007417 -0.015738 43.845737 0.011232 -0.024784 57.754570 -0.000003 0.000000 0.000004 -54.184721 -21.120500 75.031622 64.796509 -15.622383 -3.308862 19.824173 -0.710449 -46.262067 -1.157072 -1.709204 0.727972 0.000000 0.000001 -0.000000 -81.382544 13.274511 -58.971013 118.519901 43.378087 20.622149 -1.981284 8.924547 -29.538123 -27.016969 6.681904 -3.787105 0.000001 0.000001 -0.000000 
-7.603800 39.074333 12.394539 4.501278 -76.129828 8.336109 14.171349 -9.432227 -9.597201 0.822960 -4.014130 -4.701319 0.883497 -4.048265 -4.640833 6.350416 13.941378 4.562922 4.605867 47.058603 -21.939363 -0.000001 -0.000001 -0.000001 6.343093 -45.423125 32.936678 -95.412613 14.917208 -39.918084 -0.000676 -67.234026 -0.219291 -47.037105 -24.090514 -23.190661 17.227639 17.613461 -11.396943 17.091259 14.422342 25.539518 31.236911 29.670943 12.025566 -0.000001 -0.000001 0.000003 -7.966932 16.523785 -95.185236 0.018657 0.020255 -66.820246 -1.750342 0.714863 -25.323775 -0.000000 -0.000001 0.000001 -4.289145 9.550816 -109.283143 2.175288 0.917400 -36.752029 0.007629 -0.943893 -36.253445 -0.000004 0.000000 0.000003 0.577715 1.809838 -112.124945 5.828220 -3.595950 -38.340478 0.006850 0.011713 -33.361519 -0.000004 -0.000003 0.000004 0.219030 -1.621435 -97.153908 2.207768 -1.384306 -60.043845 1.089987 1.621909 -33.417746 -0.000002 0.000001 0.000001 29.001065 53.770292 -56.305904 -57.251452 23.624243 -2.414197 -0.008683 74.258766 6.669084 4.503414 -16.274299 -34.603989 9.347174 2.810576 -11.364508 16.169115 -43.265984 15.843590 32.491773 -44.566773 5.661132 0.000001 -0.000002 0.000002 17.076800 -0.396527 31.924332 -0.204392 -0.284213 112.811550 1.553141 -1.173033 33.344560 -0.000003 -0.000003 -0.000002 9.205496 -5.035903 102.738080 0.014994 -0.019196 61.018499 1.871351 0.346185 31.443787 -0.000001 -0.000002 -0.000004 5.569154 -8.935235 107.329074 0.547981 -0.005784 41.263734 0.739138 0.837842 51.122224 0.000001 0.000002 -0.000005 6.511243 -17.148240 98.228004 0.007419 -0.015732 43.845733 0.011235 -0.024785 57.754570 -0.000000 0.000002 0.000004 -50.036354 -17.901989 75.141179 65.008525 -15.316587 -3.647248 17.647300 0.002566 -47.078448 -0.687559 -0.768858 0.319865 -0.000000 -0.000001 0.000000 -81.439091 17.716136 -56.312157 119.121791 43.643171 19.498990 -1.646525 7.212154 -26.360546 -27.121967 6.694767 -3.169250 0.000000 0.000000 -0.000000 
-7.784874 39.302254 12.370667 -2.688870 -77.189047 3.187469 14.193195 -8.502885 -8.840610 1.110322 -3.193011 -4.965521 1.162113 -3.232661 -4.922140 7.835082 13.661970 1.757832 8.649604 44.663225 -24.922230 -0.000000 0.000000 -0.000001 3.884106 -46.121170 27.894766 -92.581377 15.351106 -41.164102 -0.003604 -70.403937 0.791866 -48.959342 -23.036155 -20.822708 17.227636 17.613460 -11.396942 17.091257 14.422346 25.539525 31.236914 29.670950 12.025567 0.000002 -0.000001 -0.000001 -7.966932 16.523783 -95.185236 0.018654 0.020255 -66.820239 -1.750347 0.714863 -25.323772 0.000002 -0.000001 0.000001 -4.289140 9.550815 -109.283143 2.175289 0.917399 -36.752032 0.007628 -0.943889 -36.253449 0.000003 0.000001 0.000002 0.577722 1.809838 -112.124945 5.828223 -3.595953 -38.340478 0.006846 0.011717 -33.361523 -0.000002 0.000000 0.000009 0.219035 -1.621434 -97.153908 2.207772 -1.384310 -60.043838 1.089989 1.621908 -33.417742 0.000003 0.000002 -0.000004 25.631852 59.015109 -49.819472 -51.786395 29.125057 -5.033490 -0.006397 71.527701 9.777932 4.984638 -17.014047 -30.659425 9.347172 2.810572 -11.364508 16.169117 -43.265987 15.843589 32.491780 -44.566776 5.661134 0.000002 0.000000 -0.000000 17.076801 -0.396531 31.924328 -0.204393 -0.284215 112.811550 1.553143 -1.173029 33.344557 -0.000003 0.000003 -0.000001 9.205493 -5.035905 102.738080 0.014988 -0.019191 61.018499 1.871347 0.346182 31.443780 -0.000001 0.000000 -0.000002 5.569154 -8.935237 107.329074 0.547981 -0.005788 41.263734 0.739139 0.837838 51.122231 0.000002 -0.000000 -0.000003 6.511248 -17.148237 98.227997 0.007419 -0.015736 43.845733 0.011237 -0.024785 57.754570 -0.000000 0.000004 -0.000000 -46.214870 -14.935310 74.247769 64.899009 -14.592315 -3.778235 15.905427 0.533769 -47.949895 -0.705842 -0.571483 0.211640 -0.000000 -0.000000 -0.000000 -80.443113 22.167121 -55.145103 119.187102 44.651675 19.426947 -1.320819 6.040862 -23.980871 -27.252545 6.561705 -2.362413 0.000000 0.000000 0.000000 
-7.995155 39.372208 12.112673 -7.522377 -77.682002 0.084021 14.171954 -7.968514 -8.527456 1.359056 -2.708765 -5.305712 1.402235 -2.761364 -5.269161 7.700863 13.465534 0.659655 10.266319 43.591152 -27.171930 -0.000000 0.000001 -0.000000 2.962092 -46.004346 25.960606 -89.812411 15.497670 -42.527285 -0.005120 -73.162439 2.518050 -50.728600 -22.018057 -16.722979 17.227639 17.613458 -11.396942 17.091259 14.422347 25.539520 31.236907 29.670950 12.025567 -0.000000 -0.000002 -0.000002 -7.966926 16.523787 -95.185236 0.018658 0.020257 -66.820239 -1.750345 0.714860 -25.323777 -0.000003 0.000000 -0.000006 -4.289142 9.550814 -109.283143 2.175288 0.917399 -36.752029 0.007629 -0.943891 -36.253449 -0.000001 0.000004 0.000004 0.577718 1.809839 -112.124939 5.828220 -3.595951 -38.340475 0.006855 0.011709 -33.361519 -0.000003 -0.000001 0.000009 0.219036 -1.621435 -97.153908 2.207774 -1.384307 -60.043845 1.089985 1.621910 -33.417742 0.000002 -0.000002 0.000001 24.862809 61.142153 -47.617955 -49.323600 31.719276 -6.759713 -0.000202 69.827742 11.073541 4.261185 -17.634705 -26.240603 9.347174 2.810569 -11.364513 16.169122 -43.265984 15.843589 32.491780 -44.566776 5.661128 -0.000001 0.000000 0.000001 17.076801 -0.396529 31.924332 -0.204390 -0.284220 112.811550 1.553139 -1.173029 33.344557 -0.000004 -0.000005 0.000001 9.205490 -5.035908 102.738080 0.014993 -0.019191 61.018499 1.871347 0.346193 31.443776 -0.000000 -0.000002 -0.000001 5.569154 -8.935239 107.329074 0.547981 -0.005781 41.263727 0.739138 0.837845 51.122231 -0.000000 0.000002 -0.000001 6.511249 -17.148237 98.228004 0.007415 -0.015737 43.845740 0.011234 -0.024783 57.754577 -0.000004 0.000003 0.000003 -43.691306 -12.709565 72.980141 64.339692 -13.831817 -3.667302 15.069983 0.807783 -48.818767 -0.575447 -0.964586 0.353129 -0.000000 0.000002 -0.000000 -79.621940 26.009116 -56.253964 118.476598 46.214907 20.941140 0.195592 5.636785 -23.440443 -27.331422 6.463488 -1.857770 -0.000000 0.000002 0.000000 
-8.146597 39.251549 11.657373 -8.821975 -77.435712 -0.359701 14.318790 -7.904043 -8.698437 1.496783 -2.676659 -5.551362 1.535132 -2.737508 -5.513538 6.099465 13.438644 1.714522 9.261544 43.955225 -27.891455 -0.000002 -0.000001 -0.000000 3.631944 -45.640495 27.316273 -88.507511 15.534616 -43.334419 -0.002575 -74.734659 4.267049 -50.935552 -20.563886 -13.144574 17.227634 17.613461 -11.396940 17.091257 14.422349 25.539520 31.236917 29.670943 12.025567 -0.000001 -0.000000 0.000001 -7.966937 16.523780 -95.185229 0.018655 0.020259 -66.820239 -1.750341 0.714860 -25.323775 -0.000000 -0.000001 0.000001 -4.289143 9.550812 -109.283143 2.175288 0.917401 -36.752025 0.007627 -0.943892 -36.253449 -0.000004 0.000001 0.000002 0.577710 1.809838 -112.124939 5.828220 -3.595954 -38.340478 0.006848 0.011717 -33.361519 0.000000 0.000002 0.000007 0.219029 -1.621435 -97.153908 2.207774 -1.384306 -60.043838 1.089987 1.621904 -33.417742 -0.000000 0.000003 0.000001 27.176092 60.416834 -49.644110 -49.961485 32.046448 -8.015499 0.000495 69.200396 10.570028 2.141269 -17.867228 -23.751366 9.347174 2.810573 -11.364505 16.169114 -43.265984 15.843589 32.491777 -44.566769 5.661131 0.000001 -0.000004 -0.000001 17.076795 -0.396526 31.924328 -0.204394 -0.284225 112.811550 1.553140 -1.173034 33.344557 -0.000000 -0.000004 -0.000004 9.205490 -5.035899 102.738087 0.014991 -0.019189 61.018499 1.871348 0.346185 31.443780 -0.000002 -0.000004 -0.000001 5.569152 -8.935231 107.329080 0.547979 -0.005783 41.263734 0.739138 0.837840 51.122224 -0.000001 -0.000000 0.000000 6.511245 -17.148232 98.228004 0.007416 -0.015738 43.845733 0.011226 -0.024785 57.754577 -0.000000 -0.000003 0.000007 -43.289609 -12.023148 71.926127 63.545498 -13.428627 -3.266209 15.487384 0.668457 -49.330283 -0.607398 -1.329592 0.257615 -0.000000 -0.000002 0.000000 -79.358390 27.735365 -60.331669 116.914097 47.903743 24.067551 3.635820 6.155845 -25.756975 -27.353897 6.233555 -1.687976 0.000000 0.000000 0.000000 
